<svg xmlns="http://www.w3.org/2000/svg" viewBox="109 31 169 363">
<title>Bjórr Emblem — Uppercase B</title>
<desc>Smooth editable vector paths traced from the approved first Bjórr identity concept. Joined j-form, separate uppercase B-form and three gold leaves. Genuine transparent background; no raster images embedded.</desc>
<g id="leaves" fill="#C49A4A" fill-rule="evenodd">
<path id="leaf-1" d="M 216.973 89.156 C 216.555 89.093 215.997 89.501 215.402 89.742 C 214.767 89.999 214.090 90.065 213.463 90.244 C 212.875 90.412 212.332 90.679 211.778 90.924 C 210.102 91.666 208.321 92.205 206.646 93.014 C 203.203 94.675 200.205 97.473 197.688 100.365 C 196.424 101.817 195.282 103.293 194.293 104.947 C 193.347 106.530 192.542 108.274 192.258 110.082 C 192.056 111.373 192.120 112.697 191.774 113.919 C 191.611 114.492 191.358 115.043 191.194 115.619 C 190.843 116.847 190.897 118.188 190.923 119.640 C 190.935 120.366 190.941 121.120 191.232 121.550 C 191.760 122.331 193.231 122.040 194.503 121.759 C 195.859 121.459 196.989 121.169 198.158 120.844 C 199.869 120.368 201.663 119.815 203.352 119.004 C 206.792 117.354 209.796 114.634 212.061 111.536 C 214.278 108.505 215.788 105.112 216.676 101.446 C 217.119 99.618 217.407 97.723 217.723 95.951 C 217.948 94.691 218.187 93.493 218.075 91.940 C 217.987 90.713 217.679 89.263 216.973 89.156 Z"/>
<path id="leaf-2" d="M 120.085 89.159 C 119.482 89.726 120.102 91.685 120.094 93.128 C 120.089 93.849 119.928 94.442 119.911 95.063 C 119.879 96.259 120.384 97.560 120.766 98.743 C 120.965 99.358 121.130 99.941 121.295 100.551 C 121.759 102.276 122.216 104.218 122.907 105.958 C 123.603 107.712 124.536 109.261 125.566 110.866 C 126.623 112.514 127.782 114.221 129.262 115.438 C 130.704 116.624 132.451 117.345 134.156 118.243 C 135.833 119.126 137.470 120.178 139.156 120.745 C 140.315 121.135 141.497 121.296 142.787 121.632 C 143.430 121.799 144.100 122.010 144.776 122.121 C 145.479 122.236 146.189 122.242 146.579 121.872 C 146.917 121.551 147.016 120.948 147.069 120.344 C 147.192 118.951 147.074 117.555 146.760 116.291 C 146.457 115.067 145.970 113.966 145.923 112.681 C 145.899 112.018 145.992 111.305 145.859 110.665 C 145.735 110.066 145.414 109.531 145.238 108.952 C 145.050 108.336 145.027 107.671 144.844 107.058 C 144.672 106.482 144.358 105.952 144.037 105.415 C 143.059 103.773 142.024 102.060 140.909 100.584 C 140.185 99.626 139.428 98.768 138.489 97.953 C 138.009 97.537 137.481 97.131 136.974 96.726 C 135.415 95.477 134.052 94.223 132.359 93.274 C 130.752 92.372 128.847 91.745 127.143 91.151 C 125.999 90.752 124.946 90.369 123.607 89.838 C 122.270 89.308 120.647 88.631 120.085 89.159 Z"/>
<path id="leaf-3" d="M 169.007 41.206 C 168.301 41.276 167.601 43.122 166.911 44.311 C 166.573 44.894 166.237 45.320 165.901 45.784 C 165.212 46.735 164.522 47.849 163.869 48.967 C 162.591 51.159 161.458 53.368 160.444 55.637 C 158.366 60.285 156.783 65.184 156.929 70.410 C 156.948 71.096 156.997 71.786 156.848 72.407 C 156.709 72.983 156.400 73.498 156.368 74.026 C 156.335 74.558 156.583 75.102 156.740 75.681 C 157.077 76.921 157.000 78.321 157.148 79.663 C 157.422 82.159 158.474 84.454 159.498 86.726 C 160.534 89.025 161.542 91.299 162.854 93.444 C 164.188 95.624 165.835 97.669 167.575 99.704 C 168.029 100.236 168.490 100.767 168.960 100.770 C 169.430 100.772 169.909 100.245 170.424 99.730 C 170.939 99.216 171.490 98.713 171.955 98.189 C 172.848 97.182 173.421 96.097 174.068 95.013 C 175.329 92.899 176.873 90.788 177.985 88.554 C 179.384 85.744 180.101 82.737 180.866 79.695 C 181.503 77.165 182.172 74.610 182.033 72.045 C 181.929 70.129 181.372 68.206 180.970 66.339 C 180.705 65.106 180.507 63.897 180.216 62.672 C 179.654 60.307 178.744 57.881 177.639 55.607 C 176.538 53.340 175.244 51.225 174.158 48.966 C 173.620 47.846 173.133 46.690 172.439 45.696 C 172.063 45.158 171.626 44.668 171.210 44.035 C 170.425 42.839 169.713 41.136 169.007 41.206 Z"/>
</g><g id="monogram" fill="#0E2240" fill-rule="evenodd">
<path id="b-form" d="M 217.863 137.146 C 217.368 136.905 215.598 137.969 213.980 138.836 C 212.363 139.702 210.898 140.371 209.540 141.074 C 208.171 141.782 206.911 142.527 205.705 143.426 C 203.161 145.322 200.858 147.908 199.043 150.695 C 197.336 153.317 196.061 156.117 195.426 159.062 C 194.740 162.242 194.800 165.591 194.849 168.937 C 195.070 184.005 195.064 198.993 195.037 213.989 C 194.984 242.315 194.851 270.667 195.091 299.020 C 195.162 307.359 195.265 315.698 194.575 323.986 C 194.315 327.098 193.944 330.202 193.010 333.159 C 192.088 336.072 190.619 338.842 189.006 341.521 C 185.656 347.082 181.683 352.252 176.399 355.777 C 171.254 359.210 164.867 361.083 158.945 362.312 C 157.459 362.621 156.002 362.889 154.421 362.895 C 152.797 362.901 151.043 362.631 149.232 362.322 C 147.426 362.015 145.563 361.669 145.143 362.382 C 144.822 362.926 145.342 364.087 146.066 365.116 C 147.051 366.515 148.413 367.668 149.790 368.748 C 154.934 372.781 160.297 375.786 166.069 377.962 C 171.904 380.161 178.157 381.514 184.389 382.333 C 187.590 382.754 190.785 383.034 193.999 383.028 C 197.212 383.022 200.443 382.730 203.648 382.375 C 208.405 381.849 213.105 381.184 217.696 379.859 C 220.651 379.007 223.561 377.880 226.396 376.643 C 232.131 374.139 237.560 371.182 242.584 367.495 C 249.089 362.722 254.917 356.726 258.939 349.759 C 262.018 344.425 264.039 338.521 265.378 332.466 C 266.063 329.363 266.570 326.220 266.816 323.085 C 266.945 321.437 267.002 319.792 266.894 318.143 C 266.690 315.047 265.904 311.941 264.887 308.960 C 262.849 302.986 259.886 297.513 256.007 292.580 C 254.048 290.089 251.854 287.735 249.129 286.115 C 246.469 284.534 243.303 283.653 240.677 281.676 C 239.529 280.811 238.484 279.737 238.653 278.908 C 238.846 277.960 240.627 277.332 242.172 276.561 C 245.424 274.937 247.632 272.676 249.675 270.196 C 254.568 264.258 258.519 257.059 260.086 249.479 C 260.736 246.335 260.976 243.125 260.928 239.906 C 260.880 236.699 260.547 233.483 259.842 230.347 C 258.129 222.731 254.225 215.587 248.689 210.102 C 244.253 205.707 238.770 202.377 232.908 200.213 C 230.002 199.141 227.003 198.355 224.109 197.300 C 222.659 196.771 221.235 196.175 219.703 195.983 C 218.061 195.778 216.294 196.037 214.511 196.045 C 212.838 196.052 211.151 195.837 210.202 194.875 C 209.260 193.920 209.045 192.228 208.944 190.582 C 208.835 188.815 208.859 187.100 208.903 185.417 C 208.990 182.050 209.157 178.806 209.129 175.492 C 209.071 168.910 208.240 162.047 209.581 155.637 C 210.207 152.645 211.307 149.751 212.714 147.087 C 213.417 145.755 214.197 144.480 215.207 142.858 C 216.654 140.533 218.573 137.493 217.863 137.146 Z M 209.172 201.908 C 210.310 200.723 213.150 201.254 215.395 201.802 C 216.543 202.082 217.536 202.366 218.560 202.674 C 220.560 203.276 222.680 203.968 224.662 204.909 C 228.806 206.874 232.346 209.920 235.282 213.424 C 241.766 221.163 245.304 231.133 245.080 241.164 C 244.857 251.121 240.928 261.139 234.843 268.795 C 232.064 272.292 228.835 275.297 224.272 277.757 C 223.166 278.354 221.982 278.918 221.559 279.574 C 221.343 279.909 221.326 280.268 221.530 280.580 C 221.925 281.183 223.145 281.612 224.268 281.998 C 225.391 282.385 226.417 282.729 227.422 283.128 C 236.681 286.803 244.094 295.104 247.845 304.422 C 251.216 312.795 251.631 321.988 249.918 330.919 C 248.884 336.307 247.076 341.599 244.400 346.354 C 242.160 350.332 239.312 353.934 236.123 357.201 C 229.839 363.639 222.232 368.776 213.840 372.014 C 204.380 375.664 193.923 376.898 183.974 375.328 C 180.671 374.806 177.424 373.976 174.189 373.392 C 172.055 373.008 169.925 372.731 167.607 371.701 C 166.459 371.191 165.264 370.497 164.652 369.744 C 164.258 369.260 164.106 368.752 164.303 368.368 C 164.608 367.778 165.743 367.484 166.857 367.260 C 168.059 367.018 169.236 366.858 170.402 366.650 C 180.324 364.888 189.386 359.740 196.247 352.459 C 202.342 345.992 206.700 337.842 208.251 329.163 C 209.265 323.489 209.079 317.589 209.012 311.752 C 208.957 307.013 208.981 302.315 208.994 297.606 C 209.023 287.012 208.999 276.362 208.995 265.734 C 208.992 255.105 209.010 244.498 209.002 233.874 C 208.998 229.153 208.990 224.428 208.998 219.695 C 209.003 217.329 209.011 214.961 209.030 212.658 C 209.039 211.507 209.051 210.372 208.934 209.070 C 208.699 206.464 207.945 203.187 209.172 201.908 Z"/>
<path id="joined-j-form" d="M 162.020 109.044 C 161.285 110.052 161.768 113.126 161.967 115.714 C 162.166 118.302 162.081 120.404 162.033 122.588 C 161.985 124.771 161.975 127.036 161.974 129.299 C 161.973 133.826 162.009 138.346 162.023 142.863 C 162.050 151.897 161.987 160.916 161.968 169.943 C 161.924 190.251 162.103 210.593 162.048 230.901 C 161.993 251.209 161.705 271.483 162.119 291.857 C 162.302 300.831 162.620 309.826 160.962 318.589 C 160.182 322.708 158.966 326.776 156.309 330.015 C 154.883 331.753 153.042 333.252 151.140 334.862 C 149.364 336.365 147.535 337.965 145.660 337.839 C 144.273 337.746 142.861 336.709 142.169 335.369 C 141.168 333.429 141.678 330.853 141.902 328.468 C 142.127 326.084 142.066 323.891 142.032 321.674 C 141.962 317.239 141.997 312.708 142.012 308.181 C 142.040 299.128 141.985 290.095 141.974 281.068 C 141.951 263.015 142.099 244.990 142.020 226.906 C 141.971 215.604 141.833 204.278 141.966 193.039 C 142.073 184.047 142.354 175.110 142.076 165.928 C 141.806 157.015 141.008 147.872 133.079 142.887 C 131.189 141.699 128.895 140.747 126.619 139.674 C 124.345 138.601 122.090 137.407 121.533 138.036 C 121.274 138.328 121.382 139.014 121.660 139.756 C 122.283 141.418 123.762 143.364 124.949 145.354 C 130.959 155.433 129.464 166.647 128.966 177.723 C 128.557 186.811 128.819 195.806 128.961 204.817 C 129.278 225.091 128.982 245.447 128.934 265.767 C 128.907 277.056 128.956 288.334 129.044 299.613 C 129.114 308.636 129.208 317.660 128.868 326.713 C 128.697 331.240 128.418 335.775 129.394 340.269 C 129.784 342.067 130.375 343.859 131.602 344.880 C 133.059 346.093 135.414 346.219 137.712 346.211 C 146.879 346.179 155.149 344.013 162.093 339.050 C 167.308 335.323 171.773 330.018 173.845 324.011 C 175.226 320.006 175.542 315.688 175.744 311.382 C 176.169 302.311 176.085 293.295 176.036 284.276 C 175.925 263.981 175.988 243.666 176.009 223.340 C 176.029 203.014 176.007 182.678 175.981 162.404 C 175.970 153.393 175.958 144.394 176.066 135.254 C 176.119 130.797 176.200 126.306 174.976 122.319 C 174.394 120.421 173.515 118.636 172.000 116.570 C 168.968 112.435 163.388 107.170 162.020 109.044 Z"/>
</g></svg>