<svg xmlns="http://www.w3.org/2000/svg" viewBox="117 64 96 193">
<title>Bjórr Emblem — Lowercase b</title>
<desc>Smooth editable vector paths traced from the approved School of Bjórr and Bjórr Institute emblem in the first identity concept. Joined j-form, separate lowercase b-form and three gold leaves. Genuine transparent background; no raster images embedded.</desc>
<g id="leaves" fill="#C49A4A" fill-rule="evenodd">
<path id="leaf-1" d="M 180.931 100.192 C 180.588 100.110 180.042 100.443 179.446 100.727 C 178.849 101.012 178.203 101.248 177.591 101.489 C 176.381 101.965 175.306 102.457 174.259 103.038 C 172.664 103.924 171.133 105.018 169.933 106.502 C 169.135 107.489 168.483 108.649 168.070 109.719 C 167.865 110.249 167.718 110.758 167.547 111.355 C 167.008 113.233 166.222 115.984 167.242 117.193 C 167.833 117.894 169.031 118.076 170.141 117.848 C 171.350 117.598 172.454 116.862 173.534 116.195 C 175.219 115.155 176.845 114.284 177.955 112.786 C 179.027 111.339 179.617 109.306 180.167 107.623 C 180.548 106.455 180.911 105.454 181.187 103.965 C 181.471 102.427 181.663 100.367 180.931 100.192 Z"/>
<path id="leaf-2" d="M 127.024 100.084 C 126.767 100.408 126.868 101.151 127.056 101.885 C 127.230 102.562 127.479 103.231 127.644 103.859 C 127.994 105.190 127.970 106.338 128.256 107.565 C 128.664 109.316 129.704 111.227 130.860 112.696 C 132.070 114.233 133.406 115.285 135.182 116.341 C 136.916 117.373 139.070 118.408 140.715 117.920 C 141.139 117.795 141.529 117.568 141.777 117.213 C 142.116 116.730 142.193 116.009 142.170 115.313 C 142.124 113.965 141.700 112.708 141.257 111.479 C 140.600 109.656 139.902 107.893 138.659 106.439 C 137.394 104.960 135.565 103.799 133.926 102.842 C 132.880 102.231 131.911 101.703 130.566 101.015 C 129.222 100.327 127.503 99.479 127.024 100.084 Z"/>
<path id="leaf-3" d="M 154.137 74.225 C 153.758 74.357 153.432 74.906 153.101 75.490 C 152.755 76.100 152.404 76.747 152.070 77.344 C 151.748 77.919 151.442 78.447 151.140 78.994 C 150.540 80.081 149.957 81.242 149.485 82.414 C 148.503 84.851 148.001 87.336 147.876 89.957 C 147.718 93.257 148.157 96.772 149.553 99.572 C 150.108 100.686 150.814 101.687 151.576 102.921 C 152.337 104.154 153.153 105.621 154.073 105.766 C 154.954 105.905 155.929 104.835 156.702 103.748 C 157.122 103.157 157.483 102.561 157.817 101.966 C 158.435 100.866 158.963 99.769 159.444 98.619 C 160.443 96.232 161.239 93.618 161.114 91.053 C 161.019 89.125 160.405 87.225 159.919 85.293 C 159.605 84.044 159.345 82.782 158.904 81.640 C 158.463 80.500 157.843 79.480 157.268 78.272 C 156.982 77.671 156.708 77.024 156.363 76.378 C 155.723 75.178 154.840 73.981 154.137 74.225 Z"/>
</g><g id="monogram" fill="#0E2240" fill-rule="evenodd">
<path id="b-form" d="M 181.901 127.203 C 181.529 126.974 179.335 128.160 178.091 128.891 C 177.470 129.256 177.086 129.508 176.568 129.795 C 175.503 130.386 173.871 131.128 172.690 132.084 C 170.339 133.988 169.774 136.743 169.415 139.527 C 168.561 146.151 168.874 152.933 169.001 159.686 C 169.242 172.441 168.820 185.093 168.966 197.846 C 169.044 204.597 169.280 211.377 168.821 218.007 C 168.624 220.857 168.298 223.680 167.475 226.409 C 166.685 229.024 165.439 231.553 163.944 233.889 C 161.988 236.945 159.605 239.669 156.717 241.741 C 154.448 243.368 151.867 244.592 148.901 245.339 C 148.178 245.522 147.432 245.676 147.448 245.794 C 147.464 245.903 148.127 245.981 148.845 246.042 C 149.683 246.114 150.596 246.162 151.393 246.107 C 152.189 246.052 152.869 245.895 153.558 245.724 C 156.123 245.088 158.803 244.263 161.292 243.017 C 167.031 240.145 171.762 235.029 173.732 228.962 C 174.396 226.918 174.746 224.766 175.300 222.783 C 175.669 221.462 176.128 220.216 176.118 218.725 C 176.108 217.178 175.593 215.368 175.940 213.995 C 176.264 212.711 177.341 211.811 178.575 211.315 C 180.506 210.540 182.818 210.758 184.912 210.205 C 186.233 209.857 187.467 209.201 188.684 208.510 C 191.218 207.070 193.679 205.475 195.660 203.468 C 199.609 199.468 201.659 193.831 202.087 188.111 C 202.361 184.436 201.966 180.727 200.709 177.357 C 199.739 174.758 198.257 172.360 196.307 170.324 C 193.859 167.767 190.676 165.780 187.422 164.526 C 184.837 163.530 182.206 162.996 179.318 162.390 C 177.914 162.096 176.449 161.784 176.046 160.603 C 175.828 159.961 175.921 159.064 175.971 158.229 C 176.071 156.558 175.996 155.133 175.974 153.678 C 175.932 150.768 176.104 147.735 176.036 144.715 C 175.969 141.718 175.664 138.733 176.334 135.863 C 176.647 134.524 177.171 133.211 177.992 132.127 C 178.430 131.548 178.954 131.034 179.571 130.389 C 180.753 129.154 182.281 127.438 181.901 127.203 Z M 176.346 165.987 C 177.418 164.215 180.763 164.901 183.215 166.121 C 185.086 167.051 186.437 168.293 187.757 169.617 C 189.545 171.411 191.277 173.356 192.511 175.632 C 193.416 177.302 194.052 179.150 194.452 181.028 C 196.183 189.164 193.463 197.851 187.616 203.687 C 185.810 205.489 183.707 207.019 181.198 208.100 C 179.329 208.905 177.235 209.461 176.419 208.155 C 175.853 207.250 175.901 205.449 175.936 203.968 C 175.970 202.480 175.992 201.314 176.003 200.059 C 176.019 198.176 176.013 196.093 176.007 194.051 C 175.993 189.286 175.980 184.745 176.006 180.038 C 176.016 178.021 176.034 175.974 176.007 174.008 C 175.989 172.697 175.951 171.422 175.899 169.978 C 175.847 168.533 175.781 166.919 176.346 165.987 Z"/>
<path id="joined-j-form" d="M 151.184 112.319 C 150.234 112.900 151.000 116.820 151.125 119.437 C 151.188 120.746 151.090 121.728 151.031 122.805 C 150.915 124.957 150.956 127.483 150.980 129.945 C 151.030 134.867 151.014 139.530 151.005 144.270 C 150.985 154.934 151.004 165.984 150.999 176.700 C 150.995 187.417 150.968 197.800 151.064 208.918 C 151.146 218.400 151.317 228.417 142.350 233.129 C 141.332 233.664 140.195 234.131 139.568 233.688 C 138.873 233.199 138.801 231.597 138.814 230.188 C 138.828 228.727 138.934 227.474 138.994 226.250 C 139.115 223.803 139.052 221.474 139.017 219.118 C 138.946 214.406 138.985 209.589 139.002 204.785 C 139.036 195.179 138.984 185.626 138.986 176.063 C 138.988 165.304 139.058 154.532 139.000 143.724 C 138.975 139.104 138.927 134.478 135.104 131.143 C 133.253 129.527 130.516 128.215 128.808 127.979 C 128.280 127.905 127.850 127.935 127.772 128.165 C 127.637 128.563 128.563 129.564 129.307 130.606 C 132.916 135.661 132.237 141.671 132.007 147.542 C 131.818 152.381 131.933 157.125 131.991 161.890 C 132.122 172.613 131.960 183.446 131.966 194.212 C 131.973 204.977 132.147 215.676 131.930 226.531 C 131.882 228.943 131.814 231.363 132.092 233.742 C 132.221 234.849 132.424 235.948 133.087 236.557 C 133.791 237.205 135.013 237.301 136.244 237.329 C 141.038 237.437 145.961 236.509 149.624 233.952 C 154.091 230.833 156.685 225.291 157.687 219.721 C 158.540 214.980 158.240 210.218 158.075 205.443 C 157.702 194.700 158.010 183.892 158.057 173.122 C 158.104 162.351 157.890 151.618 157.975 140.821 C 158.012 136.022 158.109 131.211 158.004 126.474 C 157.954 124.192 157.857 121.927 157.236 119.685 C 156.938 118.606 156.518 117.533 155.845 116.422 C 154.481 114.174 152.075 111.774 151.184 112.319 Z"/>
</g></svg>